<?xml version="1.0" encoding="UTF-8" standalone="no"?>
<!-- Created with Inkscape (http://www.inkscape.org/) -->

<svg
   width="1920"
   height="1080"
   viewBox="0 0 508 285.74999"
   version="1.1"
   id="svg5"
   xml:space="preserve"
   inkscape:version="1.2.2 (b0a8486541, 2022-12-01)"
   sodipodi:docname="msjbox_bg.svg"
   inkscape:export-filename="../assets/msg_bg2.png"
   inkscape:export-xdpi="96"
   inkscape:export-ydpi="96"
   xmlns:inkscape="http://www.inkscape.org/namespaces/inkscape"
   xmlns:sodipodi="http://sodipodi.sourceforge.net/DTD/sodipodi-0.dtd"
   xmlns="http://www.w3.org/2000/svg"
   xmlns:svg="http://www.w3.org/2000/svg"><sodipodi:namedview
     id="namedview7"
     pagecolor="#ffffff"
     bordercolor="#eeeeee"
     borderopacity="1"
     inkscape:showpageshadow="0"
     inkscape:pageopacity="0"
     inkscape:pagecheckerboard="0"
     inkscape:deskcolor="#505050"
     inkscape:document-units="px"
     showgrid="false"
     inkscape:zoom="0.49260383"
     inkscape:cx="910.46795"
     inkscape:cy="625.24889"
     inkscape:window-width="1680"
     inkscape:window-height="981"
     inkscape:window-x="0"
     inkscape:window-y="0"
     inkscape:window-maximized="1"
     inkscape:current-layer="layer1"
     showguides="true" /><defs
     id="defs2"><marker
       style="overflow:visible"
       id="Legs"
       refX="0"
       refY="0"
       orient="auto-start-reverse"
       inkscape:stockid="Legs"
       markerWidth="20"
       markerHeight="18"
       viewBox="0 0 11.059578 10.491767"
       inkscape:isstock="true"
       inkscape:collect="always"
       preserveAspectRatio="xMidYMid"><g
         transform="scale(-0.7)"
         id="g211"><g
           transform="matrix(0,-1,-1,0,20.70862,21.31391)"
           id="g205"><path
             style="fill:none;fill-opacity:0.75;fill-rule:evenodd;stroke:context-stroke;stroke-width:1pt"
             d="m 21.22125,20.67536 c -6.910151,4.721157 -2.454525,6.606844 -5.841071,13.443235"
             id="path201" /><path
             style="fill:none;fill-opacity:0.75;fill-rule:evenodd;stroke:context-stroke;stroke-width:1pt"
             d="m 21.39811,20.54812 c -1.360509,8.347524 3.536072,8.76994 4.505041,13.824958"
             id="path203" /></g><path
           style="fill:context-stroke;fill-rule:evenodd;stroke-width:1pt"
           d="m -14.09007,-6.7318716 -0.922168,4.043383 3.962751,-1.22307 z"
           id="path207" /><path
           style="fill:context-stroke;fill-rule:evenodd;stroke-width:1pt"
           d="m -15.215679,4.5567534 1.874127,3.699613 2.266874,-3.472855 z"
           id="path209" /></g></marker><marker
       style="overflow:visible"
       id="Torso"
       refX="0"
       refY="0"
       orient="auto-start-reverse"
       inkscape:stockid="Torso"
       markerWidth="20"
       markerHeight="28.888889"
       viewBox="0 0 9.80756 13.911187"
       inkscape:isstock="true"
       inkscape:collect="always"
       preserveAspectRatio="xMidYMid"><g
         transform="scale(-0.7)"
         id="g228"><path
           style="fill:none;fill-opacity:0.75;fill-rule:evenodd;stroke:context-stroke;stroke-width:1.25"
           d="m -4.7792281,-3.239542 c 2.350374,0.3659393 5.30026732,1.9375477 5.03715532,3.62748546 C -0.00518779,2.0778819 -2.2126741,2.6176539 -4.5630471,2.2517169 -6.9134221,1.8857769 -8.521035,0.75201414 -8.257922,-0.93792336 -7.994809,-2.6278615 -7.1296041,-3.6054813 -4.7792281,-3.239542 Z"
           id="path214" /><path
           style="fill:none;fill-opacity:0.75;fill-rule:evenodd;stroke:context-stroke;stroke-width:1pt"
           d="M 4.4598789,0.08866574 C -2.5564571,-4.378332 5.2248769,-3.9061806 -0.84829578,-8.7197331"
           id="path216" /><path
           style="fill:none;fill-opacity:0.75;fill-rule:evenodd;stroke:context-stroke;stroke-width:1pt"
           d="M 4.9298719,0.05752074 C -1.3872731,1.7494689 1.8027579,5.4782079 -4.9448731,7.5462725"
           id="path218" /><rect
           style="fill:context-stroke;fill-rule:evenodd;stroke-width:1pt"
           width="2.6366582"
           height="2.7608147"
           x="-10.391706"
           y="-1.7408575"
           transform="matrix(0.527536,-0.849533,0.887668,0.460484,0,0)"
           id="rect220" /><rect
           style="fill:context-stroke;fill-rule:evenodd;stroke-width:1pt"
           width="2.7327356"
           height="2.8614161"
           x="4.9587269"
           y="-7.9629307"
           transform="matrix(0.671205,-0.741272,0.790802,0.612072,0,0)"
           id="rect222" /><path
           style="fill:#ff0000;fill-opacity:0.75;fill-rule:evenodd;stroke:context-stroke;stroke-width:1pt"
           d="m 16.779951,-28.685045 a 0.60731727,0.60731727 0 1 0 -1.214634,0 0.60731727,0.60731727 0 1 0 1.214634,0 z"
           transform="matrix(0,-1.109517,1.109517,0,25.96648,19.71619)"
           id="path224" /><path
           style="fill:#ff0000;fill-opacity:0.75;fill-rule:evenodd;stroke:context-stroke;stroke-width:1pt"
           d="m 16.779951,-28.685045 a 0.60731727,0.60731727 0 1 0 -1.214634,0 0.60731727,0.60731727 0 1 0 1.214634,0 z"
           transform="matrix(0,-1.109517,1.109517,0,26.8245,16.99126)"
           id="path226" /></g></marker><filter
       y="-0.12584801"
       height="1.219717"
       inkscape:label="Rough and Dilate"
       inkscape:menu="Distort"
       inkscape:menu-tooltip="Create a turbulent contour around"
       style="color-interpolation-filters:sRGB"
       id="filter945"
       x="-0.052801311"
       width="1.1056026"><feMorphology
         radius="7"
         operator="dilate"
         result="result8"
         in="SourceGraphic"
         id="feMorphology935" /><feComposite
         in2="result8"
         result="result10"
         in="SourceGraphic"
         operator="arithmetic"
         k1="0.5"
         k3="0.5"
         id="feComposite937"
         k2="0"
         k4="0" /><feTurbulence
         result="result11"
         type="fractalNoise"
         numOctaves="3"
         baseFrequency="0.07"
         id="feTurbulence939" /><feDisplacementMap
         result="result12"
         in2="result11"
         in="result10"
         xChannelSelector="R"
         scale="10"
         id="feDisplacementMap941"
         yChannelSelector="A" /><feComposite
         operator="arithmetic"
         result="result13"
         in="SourceGraphic"
         in2="result12"
         k1="0.25"
         k2="0.25"
         k3="0.75"
         id="feComposite943"
         k4="0" /></filter></defs><g
     inkscape:label="Katman 1"
     inkscape:groupmode="layer"
     id="layer1"><rect
       style="display:inline;opacity:0.933161;fill:#ffb380;fill-opacity:1;stroke:#49250b;stroke-width:1.32292;stroke-linecap:round;stroke-dasharray:1.32292, 1.32292;stroke-dashoffset:6.61458;stroke-opacity:1;marker-start:url(#Torso);marker-mid:url(#Legs);filter:url(#filter945)"
       id="rect111"
       width="381"
       height="214.3125"
       x="63.499996"
       y="35.718746"
       ry="12.34518"
       inkscape:label="bg"
       inkscape:export-filename="../assets/msg_bg4.png"
       inkscape:export-xdpi="96"
       inkscape:export-ydpi="96" /><g
       id="g8215"
       transform="matrix(1,0,0,-1,0,121.20375)"
       inkscape:label="virgüller"
       style="fill:#dab4f3;fill-opacity:1;stroke:#8370af;stroke-opacity:1"><path
         id="path7820"
         style="display:inline;opacity:0.933161;fill:#f4e3d7;fill-opacity:1;stroke:#8370af;stroke-width:0.24659;stroke-linecap:round;stroke-dasharray:none;stroke-opacity:1"
         d="m 92.422647,51.121862 a 10.115302,10.115302 0 0 0 -10.11536,10.11536 10.115302,10.115302 0 0 0 10.11536,10.115264 10.115302,10.115302 0 0 0 1.66544,-0.142848 c -2.052507,2.304032 -4.858611,4.000106 -8.115772,4.175738 6.42549,1.454045 12.638017,-0.968178 15.435225,-6.018126 1.88711,-3.412938 2.0167,-7.560267 0.71328,-11.002986 a 10.115302,10.115302 0 0 0 -9.698173,-7.242402 z" /><path
         id="path7879"
         style="opacity:0.933161;fill:#f4e3d7;fill-opacity:1;stroke:#8370af;stroke-width:0.24659;stroke-linecap:round;stroke-dasharray:none;stroke-opacity:1"
         d="m 113.79684,51.263006 a 10.115302,10.115302 0 0 0 -10.11536,10.115361 10.115302,10.115302 0 0 0 10.11536,10.115264 10.115302,10.115302 0 0 0 1.66544,-0.142849 c -2.05251,2.304033 -4.85861,4.000107 -8.11577,4.175739 6.42548,1.454045 12.63801,-0.968178 15.43523,-6.018126 1.8871,-3.412938 2.0167,-7.560268 0.71328,-11.002986 a 10.115302,10.115302 0 0 0 -9.69818,-7.242403 z" /><path
         id="path7881"
         style="opacity:0.933161;fill:#f4e3d7;fill-opacity:1;stroke:#8370af;stroke-width:0.24659;stroke-linecap:round;stroke-dasharray:none;stroke-opacity:1"
         d="m 400.04713,45.25979 a 10.115302,10.115302 0 0 0 -10.11536,10.11536 10.115302,10.115302 0 0 0 10.11536,10.115264 10.115302,10.115302 0 0 0 1.66544,-0.142848 c -2.05251,2.304032 -4.85861,4.000106 -8.11577,4.175738 6.42549,1.454045 12.63802,-0.968178 15.43522,-6.018126 1.88711,-3.412938 2.0167,-7.560267 0.71328,-11.002986 a 10.115302,10.115302 0 0 0 -9.69817,-7.242402 z" /><path
         id="path7883"
         style="opacity:0.933161;fill:#f4e3d7;fill-opacity:1;stroke:#8370af;stroke-width:0.24659;stroke-linecap:round;stroke-dasharray:none;stroke-opacity:1"
         d="m 421.42132,45.400934 a 10.115302,10.115302 0 0 0 -10.11536,10.115361 10.115302,10.115302 0 0 0 10.11536,10.115264 10.115302,10.115302 0 0 0 1.66544,-0.142849 c -2.05251,2.304033 -4.85861,4.000107 -8.11577,4.175739 6.42548,1.454045 12.63801,-0.968178 15.43523,-6.018126 1.8871,-3.412938 2.0167,-7.560268 0.71328,-11.002986 a 10.115302,10.115302 0 0 0 -9.69818,-7.242403 z" /></g><text
       xml:space="preserve"
       style="font-style:normal;font-variant:normal;font-weight:normal;font-stretch:normal;font-size:249.504px;font-family:D050000L;-inkscape-font-specification:'D050000L, Normal';font-variant-ligatures:normal;font-variant-caps:normal;font-variant-numeric:normal;font-variant-east-asian:normal;display:inline;opacity:0.29054303;fill:#ffffff;fill-opacity:1;stroke:none;stroke-width:31.1883;stroke-linecap:round;stroke-dasharray:none;stroke-opacity:0.419044"
       x="89.829468"
       y="329.72931"
       id="text7970"
       transform="matrix(1.1401667,-0.25221099,0,0.87706474,0,0)"
       inkscape:label="vatermark"
       inkscape:export-filename="../assets/msg_bg2.png"
       inkscape:export-xdpi="96"
       inkscape:export-ydpi="96"><tspan
         sodipodi:role="line"
         id="tspan8129"
         x="89.829468"
         y="329.72931"
         style="stroke-width:31.1883;fill:#ffffff;fill-opacity:1">0</tspan></text></g></svg>
