<?xml version="1.0" encoding="UTF-8" standalone="no"?>
<!-- Created with Inkscape (http://www.inkscape.org/) -->

<svg
   width="1920"
   height="1080"
   viewBox="0 0 508 285.74999"
   version="1.1"
   id="svg5"
   xml:space="preserve"
   inkscape:version="1.2.2 (b0a8486541, 2022-12-01)"
   sodipodi:docname="msjbox_bg.svg"
   inkscape:export-filename="../assets/ortaokul.png"
   inkscape:export-xdpi="96"
   inkscape:export-ydpi="96"
   xmlns:inkscape="http://www.inkscape.org/namespaces/inkscape"
   xmlns:sodipodi="http://sodipodi.sourceforge.net/DTD/sodipodi-0.dtd"
   xmlns="http://www.w3.org/2000/svg"
   xmlns:svg="http://www.w3.org/2000/svg"><sodipodi:namedview
     id="namedview7"
     pagecolor="#ffffff"
     bordercolor="#eeeeee"
     borderopacity="1"
     inkscape:showpageshadow="0"
     inkscape:pageopacity="0"
     inkscape:pagecheckerboard="0"
     inkscape:deskcolor="#505050"
     inkscape:document-units="px"
     showgrid="false"
     inkscape:zoom="0.34832351"
     inkscape:cx="786.62505"
     inkscape:cy="513.89009"
     inkscape:window-width="1920"
     inkscape:window-height="1011"
     inkscape:window-x="0"
     inkscape:window-y="0"
     inkscape:window-maximized="1"
     inkscape:current-layer="layer1"
     showguides="true" /><defs
     id="defs2"><filter
       y="-0.035749011"
       height="1.071498"
       inkscape:label="Rough and Dilate"
       inkscape:menu="Distort"
       inkscape:menu-tooltip="Create a turbulent contour around"
       style="color-interpolation-filters:sRGB"
       id="filter945"
       x="-0.020108819"
       width="1.0402176"><feMorphology
         radius="7"
         operator="dilate"
         result="result8"
         in="SourceGraphic"
         id="feMorphology935" /><feComposite
         in2="result8"
         result="result10"
         in="SourceGraphic"
         operator="arithmetic"
         k1="0.5"
         k3="0.5"
         id="feComposite937"
         k2="0"
         k4="0" /><feTurbulence
         result="result11"
         type="fractalNoise"
         numOctaves="3"
         baseFrequency="0.07"
         id="feTurbulence939" /><feDisplacementMap
         result="result12"
         in2="result11"
         in="result10"
         xChannelSelector="R"
         scale="10"
         id="feDisplacementMap941"
         yChannelSelector="A" /><feComposite
         operator="arithmetic"
         result="result13"
         in="SourceGraphic"
         in2="result12"
         k1="0.25"
         k2="0.25"
         k3="0.75"
         id="feComposite943"
         k4="0" /></filter></defs><g
     inkscape:label="Katman 1"
     inkscape:groupmode="layer"
     id="layer1"><rect
       style="opacity:0.933161;fill:#b7b7c8;fill-opacity:1;stroke:#c49824;stroke-width:1.32292;stroke-linecap:round;stroke-dasharray:none;stroke-opacity:1;filter:url(#filter945)"
       id="rect111"
       width="381"
       height="214.3125"
       x="63.499996"
       y="35.718746"
       ry="12.34518"
       inkscape:label="bg"
       inkscape:export-filename="../assets/ortaokul.png"
       inkscape:export-xdpi="96"
       inkscape:export-ydpi="96" /><g
       id="g8215"
       transform="matrix(1,0,0,-1,0,121.20375)"
       inkscape:label="virgüller"><path
         id="path7820"
         style="display:inline;opacity:0.933161;fill:#eacc7b;fill-opacity:1;stroke:#d3b944;stroke-width:0.24659;stroke-linecap:round;stroke-dasharray:none;stroke-opacity:0.41904399"
         d="m 92.422647,51.121862 a 10.115302,10.115302 0 0 0 -10.11536,10.11536 10.115302,10.115302 0 0 0 10.11536,10.115264 10.115302,10.115302 0 0 0 1.66544,-0.142848 c -2.052507,2.304032 -4.858611,4.000106 -8.115772,4.175738 6.42549,1.454045 12.638017,-0.968178 15.435225,-6.018126 1.88711,-3.412938 2.0167,-7.560267 0.71328,-11.002986 a 10.115302,10.115302 0 0 0 -9.698173,-7.242402 z" /><path
         id="path7879"
         style="opacity:0.933161;fill:#eacc7b;fill-opacity:1;stroke:#d3b944;stroke-width:0.24659;stroke-linecap:round;stroke-dasharray:none;stroke-opacity:0.41904399"
         d="m 113.79684,51.263006 a 10.115302,10.115302 0 0 0 -10.11536,10.115361 10.115302,10.115302 0 0 0 10.11536,10.115264 10.115302,10.115302 0 0 0 1.66544,-0.142849 c -2.05251,2.304033 -4.85861,4.000107 -8.11577,4.175739 6.42548,1.454045 12.63801,-0.968178 15.43523,-6.018126 1.8871,-3.412938 2.0167,-7.560268 0.71328,-11.002986 a 10.115302,10.115302 0 0 0 -9.69818,-7.242403 z" /><path
         id="path7881"
         style="opacity:0.933161;fill:#eacc7b;fill-opacity:1;stroke:#d3b944;stroke-width:0.24659;stroke-linecap:round;stroke-dasharray:none;stroke-opacity:0.41904399"
         d="m 400.04713,45.25979 a 10.115302,10.115302 0 0 0 -10.11536,10.11536 10.115302,10.115302 0 0 0 10.11536,10.115264 10.115302,10.115302 0 0 0 1.66544,-0.142848 c -2.05251,2.304032 -4.85861,4.000106 -8.11577,4.175738 6.42549,1.454045 12.63802,-0.968178 15.43522,-6.018126 1.88711,-3.412938 2.0167,-7.560267 0.71328,-11.002986 a 10.115302,10.115302 0 0 0 -9.69817,-7.242402 z" /><path
         id="path7883"
         style="opacity:0.933161;fill:#eacc7b;fill-opacity:1;stroke:#d3b944;stroke-width:0.24659;stroke-linecap:round;stroke-dasharray:none;stroke-opacity:0.41904399"
         d="m 421.42132,45.400934 a 10.115302,10.115302 0 0 0 -10.11536,10.115361 10.115302,10.115302 0 0 0 10.11536,10.115264 10.115302,10.115302 0 0 0 1.66544,-0.142849 c -2.05251,2.304033 -4.85861,4.000107 -8.11577,4.175739 6.42548,1.454045 12.63801,-0.968178 15.43523,-6.018126 1.8871,-3.412938 2.0167,-7.560268 0.71328,-11.002986 a 10.115302,10.115302 0 0 0 -9.69818,-7.242403 z" /></g><text
       xml:space="preserve"
       style="font-style:normal;font-variant:normal;font-weight:normal;font-stretch:normal;font-size:269.04px;font-family:D050000L;-inkscape-font-specification:'D050000L, Normal';font-variant-ligatures:normal;font-variant-caps:normal;font-variant-numeric:normal;font-variant-east-asian:normal;opacity:0.0416802;fill:#2c89a0;fill-opacity:1;stroke:none;stroke-width:33.6303;stroke-linecap:round;stroke-dasharray:none;stroke-opacity:0.419044"
       x="14.580147"
       y="319.25504"
       id="text7970"
       transform="matrix(1.1505854,-0.24992718,0,0.86912281,0,0)"
       inkscape:label="vatermark"><tspan
         sodipodi:role="line"
         id="tspan8022"
         x="14.580147"
         y="319.25504"
         style="stroke:none;stroke-width:33.6303">ai</tspan></text></g></svg>
